ModelForces
version=1
nRows=4
nColumns=206
inDegrees=no

This file contains the forces exerted on a model during a simulation.

A force is a generalized force, meaning that it can be either a force (N) or a torque (Nm).

Units are S.I. units (second, meters, Newtons, ...)
Angles are in degrees.

endheader
time	glut_med1_r	glut_med2_r	glut_med3_r	glut_min1_r	glut_min2_r	glut_min3_r	semimem_r	semiten_r	bifemlh_r	bifemsh_r	sar_r	add_long_r	add_brev_r	add_mag1_r	add_mag2_r	add_mag3_r	tfl_r	pect_r	grac_r	glut_max1_r	glut_max2_r	glut_max3_r	iliacus_r	psoas_r	quad_fem_r	gem_r	peri_r	rect_fem_r	vas_med_r	vas_int_r	vas_lat_r	med_gas_r	lat_gas_r	soleus_r	tib_post_r	flex_dig_r	flex_hal_r	tib_ant_r	per_brev_r	per_long_r	per_tert_r	ext_dig_r	ext_hal_r	glut_med1_l	glut_med2_l	glut_med3_l	glut_min1_l	glut_min2_l	glut_min3_l	semimem_l	semiten_l	bifemlh_l	bifemsh_l	sar_l	add_long_l	add_brev_l	add_mag1_l	add_mag2_l	add_mag3_l	tfl_l	pect_l	grac_l	glut_max1_l	glut_max2_l	glut_max3_l	iliacus_l	psoas_l	quad_fem_l	gem_l	peri_l	rect_fem_l	vas_med_l	vas_int_l	vas_lat_l	med_gas_l	lat_gas_l	soleus_l	tib_post_l	flex_dig_l	flex_hal_l	tib_ant_l	per_brev_l	per_long_l	per_tert_l	ext_dig_l	ext_hal_l	ercspn_r	ercspn_l	intobl_r	intobl_l	extobl_r	extobl_l	femur_lat_meniscii_l.femur_lat_l.force.X	femur_lat_meniscii_l.femur_lat_l.force.Y	femur_lat_meniscii_l.femur_lat_l.force.Z	femur_lat_meniscii_l.femur_lat_l.torque.X	femur_lat_meniscii_l.femur_lat_l.torque.Y	femur_lat_meniscii_l.femur_lat_l.torque.Z	femur_lat_meniscii_l.meniscus_lat_l.force.X	femur_lat_meniscii_l.meniscus_lat_l.force.Y	femur_lat_meniscii_l.meniscus_lat_l.force.Z	femur_lat_meniscii_l.meniscus_lat_l.torque.X	femur_lat_meniscii_l.meniscus_lat_l.torque.Y	femur_lat_meniscii_l.meniscus_lat_l.torque.Z	femur_med_meniscii_l.femur_med_l.force.X	femur_med_meniscii_l.femur_med_l.force.Y	femur_med_meniscii_l.femur_med_l.force.Z	femur_med_meniscii_l.femur_med_l.torque.X	femur_med_meniscii_l.femur_med_l.torque.Y	femur_med_meniscii_l.femur_med_l.torque.Z	femur_med_meniscii_l.meniscus_med_l.force.X	femur_med_meniscii_l.meniscus_med_l.force.Y	femur_med_meniscii_l.meniscus_med_l.force.Z	femur_med_meniscii_l.meniscus_med_l.torque.X	femur_med_meniscii_l.meniscus_med_l.torque.Y	femur_med_meniscii_l.meniscus_med_l.torque.Z	femur_lat_meniscii_r.femur_lat_r.force.X	femur_lat_meniscii_r.femur_lat_r.force.Y	femur_lat_meniscii_r.femur_lat_r.force.Z	femur_lat_meniscii_r.femur_lat_r.torque.X	femur_lat_meniscii_r.femur_lat_r.torque.Y	femur_lat_meniscii_r.femur_lat_r.torque.Z	femur_lat_meniscii_r.meniscus_lat_r.force.X	femur_lat_meniscii_r.meniscus_lat_r.force.Y	femur_lat_meniscii_r.meniscus_lat_r.force.Z	femur_lat_meniscii_r.meniscus_lat_r.torque.X	femur_lat_meniscii_r.meniscus_lat_r.torque.Y	femur_lat_meniscii_r.meniscus_lat_r.torque.Z	femur_med_meniscii_r.femur_med_r.force.X	femur_med_meniscii_r.femur_med_r.force.Y	femur_med_meniscii_r.femur_med_r.force.Z	femur_med_meniscii_r.femur_med_r.torque.X	femur_med_meniscii_r.femur_med_r.torque.Y	femur_med_meniscii_r.femur_med_r.torque.Z	femur_med_meniscii_r.meniscus_med_r.force.X	femur_med_meniscii_r.meniscus_med_r.force.Y	femur_med_meniscii_r.meniscus_med_r.force.Z	femur_med_meniscii_r.meniscus_med_r.torque.X	femur_med_meniscii_r.meniscus_med_r.torque.Y	femur_med_meniscii_r.meniscus_med_r.torque.Z	femur_med_tibia_l.tibia_upper_l.force.X	femur_med_tibia_l.tibia_upper_l.force.Y	femur_med_tibia_l.tibia_upper_l.force.Z	femur_med_tibia_l.tibia_upper_l.torque.X	femur_med_tibia_l.tibia_upper_l.torque.Y	femur_med_tibia_l.tibia_upper_l.torque.Z	femur_med_tibia_l.femur_med_l.force.X	femur_med_tibia_l.femur_med_l.force.Y	femur_med_tibia_l.femur_med_l.force.Z	femur_med_tibia_l.femur_med_l.torque.X	femur_med_tibia_l.femur_med_l.torque.Y	femur_med_tibia_l.femur_med_l.torque.Z	femur_lat_tibia_l.tibia_upper_l.force.X	femur_lat_tibia_l.tibia_upper_l.force.Y	femur_lat_tibia_l.tibia_upper_l.force.Z	femur_lat_tibia_l.tibia_upper_l.torque.X	femur_lat_tibia_l.tibia_upper_l.torque.Y	femur_lat_tibia_l.tibia_upper_l.torque.Z	femur_lat_tibia_l.femur_lat_l.force.X	femur_lat_tibia_l.femur_lat_l.force.Y	femur_lat_tibia_l.femur_lat_l.force.Z	femur_lat_tibia_l.femur_lat_l.torque.X	femur_lat_tibia_l.femur_lat_l.torque.Y	femur_lat_tibia_l.femur_lat_l.torque.Z	femur_med_tibia_r.tibia_upper_r.force.X	femur_med_tibia_r.tibia_upper_r.force.Y	femur_med_tibia_r.tibia_upper_r.force.Z	femur_med_tibia_r.tibia_upper_r.torque.X	femur_med_tibia_r.tibia_upper_r.torque.Y	femur_med_tibia_r.tibia_upper_r.torque.Z	femur_med_tibia_r.femur_med_r.force.X	femur_med_tibia_r.femur_med_r.force.Y	femur_med_tibia_r.femur_med_r.force.Z	femur_med_tibia_r.femur_med_r.torque.X	femur_med_tibia_r.femur_med_r.torque.Y	femur_med_tibia_r.femur_med_r.torque.Z	femur_lat_tibia_r.tibia_upper_r.force.X	femur_lat_tibia_r.tibia_upper_r.force.Y	femur_lat_tibia_r.tibia_upper_r.force.Z	femur_lat_tibia_r.tibia_upper_r.torque.X	femur_lat_tibia_r.tibia_upper_r.torque.Y	femur_lat_tibia_r.tibia_upper_r.torque.Z	femur_lat_tibia_r.femur_lat_r.force.X	femur_lat_tibia_r.femur_lat_r.force.Y	femur_lat_tibia_r.femur_lat_r.force.Z	femur_lat_tibia_r.femur_lat_r.torque.X	femur_lat_tibia_r.femur_lat_r.torque.Y	femur_lat_tibia_r.femur_lat_r.torque.Z	aACL_R	pACL_R	aPCL_R	pPCL_R	aMCL_R	mMCL_R	pMCL_R	aLCL_R	mLCL_R	pLCL_R	aPCL_L	pPCL_L	aMCL_L	aLCL_L	ground_prescribedForce_-60_fx	ground_prescribedForce_-60_fy	ground_prescribedForce_-60_fz
      0.00000000	     37.48087652	     28.28714471	     30.25598133	     13.28977762	     14.47626353	     15.91713841	      0.00000000	     17.23423881	     18.16345732	     27.55006035	      7.42416905	     27.93927808	     20.68957741	     14.51222487	     12.16230296	     19.66717628	     11.63399685	     11.16605282	      7.13387438	     18.12681708	     27.55933735	     20.56469162	     63.94906620	     55.74758807	     18.09791099	      9.16719286	     20.03897647	     82.53295193	     60.78593281	     64.36444707	     86.74103206	     21.04916579	     13.40696104	    152.72720615	     92.44658902	     14.93332009	     15.26895791	     41.82851940	     21.62523106	     46.40594865	      8.86060096	     25.04818486	      7.96045570	     37.48087652	     28.28714471	     30.25598133	     13.28977762	     14.47626353	     15.91713841	     42.06683902	     20.39635155	     37.67631238	     36.01822118	      7.59254209	     27.93927808	     20.68957741	     14.51222487	     12.16230296	     19.66717628	     12.58139899	     11.16605282	      7.78214370	     18.12681708	     27.55933735	     20.56469162	     63.94906620	     55.74758807	     18.09791099	      9.16719286	     20.03897647	     52.59637061	     32.48786114	     37.22481259	     39.87514307	     67.71424671	     31.64857027	    152.72720615	     92.44658902	     14.93332009	     15.26895791	     41.82851940	     21.62523106	     46.40594865	      8.86060096	     25.04818486	      7.96045570	    124.99446086	    124.99446086	     44.97041513	     44.97041513	     60.98287244	     60.98287244	      2.76307435	     50.99597937	     -9.56042239	      5.21997485	     -0.02578839	      1.48581788	     -2.76307435	    -50.99597937	      9.56042239	     -1.74637766	      0.02558040	     -0.48301696	     -3.31599387	     20.97615968	     -3.40468921	      0.94473225	     -0.02138609	     -1.00501789	      3.31599387	    -20.97615968	      3.40468921	      0.28075727	      0.00368718	     -0.29758878	    920.35111397	    273.64148217	    -31.21698618	      6.59843794	     22.65649429	    375.12018747	   -920.35111397	   -273.64148217	     31.21698618	      6.55592663	    -25.72137854	    -14.16431071	      0.00000000	      0.00000000	      0.00000000	      0.00000000	      0.00000000	      0.00000000	      0.00000000	      0.00000000	      0.00000000	      0.00000000	      0.00000000	      0.00000000	      0.00000000	      0.00000000	      0.00000000	      0.00000000	      0.00000000	      0.00000000	      0.00000000	      0.00000000	      0.00000000	      0.00000000	      0.00000000	      0.00000000	      0.00000000	      0.00000000	      0.00000000	      0.00000000	      0.00000000	      0.00000000	      0.00000000	      0.00000000	      0.00000000	      0.00000000	      0.00000000	      0.00000000	    -18.53499647	    -11.49348552	     10.71403869	     -0.38446669	      0.45382574	     -0.17864398	     18.53499647	     11.49348552	    -10.71403869	      4.56622729	     -0.30454050	      7.57312218	   -358.37129293	   -221.73603431	   -119.29575512	      9.00287624	    -12.74757836	     -3.34252050	    358.37129293	    221.73603431	    119.29575512	    -54.15204955	      8.80389321	    146.30338864	      0.00000000	      0.00000000	    728.16489438	    476.70220170	      7.92386980	      5.84184061	      1.52915788	      0.00000000	      0.00000000	      0.00000000	      0.00000000	      0.00000000	      0.00000001	      0.00000000	     55.00000000	    -95.26270000	      0.00000000
      0.00048806	     37.47844221	     28.28306194	     30.25234478	     13.28473195	     14.47347946	     15.91605400	      0.00000000	     17.29408504	     18.22271479	     27.83013812	      7.48025032	     27.93597517	     20.67771675	     14.51015388	     12.16106853	     19.66616527	     11.64576424	     11.16290428	      7.17835750	     18.12464591	     27.55608937	     20.56265578	     63.94347299	     55.74438183	     18.09421468	      9.16669265	     20.03853967	     82.74483042	     61.23310148	     64.81097236	     87.26879821	     21.01719177	     13.39659367	    152.34302514	     92.46967105	     14.95187043	     15.28247971	     41.97374046	     21.56738821	     46.34178084	      8.87256516	     25.05226465	      7.96616927	     37.47844221	     28.28306194	     30.25234478	     13.28473195	     14.47347946	     15.91605400	     42.06575753	     20.39488308	     37.67510405	     36.01109009	      7.58909296	     27.93597517	     20.67771675	     14.51015388	     12.16106853	     19.66616527	     12.58114603	     11.16290428	      7.78018417	     18.12464591	     27.55608937	     20.56265578	     63.94347299	     55.74438183	     18.09421468	      9.16669265	     20.03853967	     52.59453981	     32.48518593	     37.22216278	     39.87244734	     67.71318368	     31.64806457	    152.72389769	     92.44575599	     14.93348834	     15.26907132	     41.82679446	     21.62461305	     46.40533230	      8.85994478	     25.04701210	      7.95998508	    124.95050573	    124.95050573	     44.96632996	     44.96632996	     60.97845087	     60.97845087	      2.76307435	     50.99597937	     -9.56042239	      5.21997485	     -0.02578839	      1.48581788	     -2.76307435	    -50.99597937	      9.56042239	     -1.74637766	      0.02558040	     -0.48301696	     -3.31599387	     20.97615968	     -3.40468921	      0.94473225	     -0.02138609	     -1.00501789	      3.31599387	    -20.97615968	      3.40468921	      0.28075727	      0.00368718	     -0.29758878	    924.77073607	    185.49166126	    -94.41067233	     34.73025420	     22.01937824	    377.95884405	   -924.77073607	   -185.49166126	     94.41067233	      2.46010235	    -23.78312942	    -17.13743026	      0.00000000	      0.00000000	      0.00000000	      0.00000000	      0.00000000	      0.00000000	      0.00000000	      0.00000000	      0.00000000	      0.00000000	      0.00000000	      0.00000000	      0.00000000	      0.00000000	      0.00000000	      0.00000000	      0.00000000	      0.00000000	      0.00000000	      0.00000000	      0.00000000	      0.00000000	      0.00000000	      0.00000000	      0.00000000	      0.00000000	      0.00000000	      0.00000000	      0.00000000	      0.00000000	      0.00000000	      0.00000000	      0.00000000	      0.00000000	      0.00000000	      0.00000000	    -18.56417617	     -9.97149655	     11.79845769	     -0.40297909	      0.48553732	     -0.22403655	     18.56417617	      9.97149655	    -11.79845769	      4.99723233	     -0.31374307	      7.59801496	   -366.77305908	   -199.60451933	   -102.24924709	      7.95685929	    -12.42470124	     -4.27719108	    366.77305908	    199.60451933	    102.24924709	    -46.61569503	      8.80244149	    150.01947559	      0.00000000	      0.00000000	    727.19076029	    473.41965117	     12.85578139	      9.87762305	      4.81960979	      0.00000000	      0.00000000	      0.00000000	      0.00000000	      0.00000000	      0.00000001	      0.00000000	     55.00000000	    -95.26270000	      0.00000000
      0.00097613	     37.47116550	     28.27101729	     30.24157333	     13.27042570	     14.46533734	     15.91281405	      0.00000000	     17.42230850	     18.35957113	     28.44306031	      7.58364895	     27.92618916	     20.64518941	     14.50404301	     12.15740104	     19.66313646	     11.67086978	     11.15382876	      7.26830938	     18.11821505	     27.54646591	     20.55660474	     63.92687001	     55.73478812	     18.08341918	      9.16519674	     20.03722463	     83.20350225	     62.16814142	     65.74930843	     88.38325712	     20.89208301	     13.35173401	    151.16970285	     92.55055631	     15.00764717	     15.32265929	     42.42583736	     21.38386084	     46.13822536	      8.90623621	     25.06814021	      7.98592143	     37.47116550	     28.27101729	     30.24157333	     13.27042570	     14.46533734	     15.91281405	     42.06250392	     20.39049836	     37.67147256	     35.99024093	      7.57943770	     27.92618916	     20.64518941	     14.50404301	     12.15740104	     19.66313646	     12.58038454	     11.15382876	      7.77450671	     18.11821505	     27.54646591	     20.55660474	     63.92687001	     55.73478812	     18.08341918	      9.16519674	     20.03722463	     52.58903979	     32.47721291	     37.21425077	     39.86439370	     67.70998011	     31.64654059	    152.71393701	     92.44324399	     14.93398917	     15.26940675	     41.82161792	     21.62275442	     46.40347396	      8.85798676	     25.04349622	      7.95857584	    124.82528165	    124.82528165	     44.95417013	     44.95417013	     60.96531478	     60.96531478	      2.76307435	     50.99597937	     -9.56042239	      5.21997485	     -0.02578839	      1.48581788	     -2.76307435	    -50.99597937	      9.56042239	     -1.74637766	      0.02558040	     -0.48301696	     -3.31599387	     20.97615968	     -3.40468921	      0.94473225	     -0.02138609	     -1.00501789	      3.31599387	    -20.97615968	      3.40468921	      0.28075727	      0.00368718	     -0.29758878	    922.55747278	    143.03172388	   -102.37281652	     39.05164524	     21.85975623	    377.53956760	   -922.55747278	   -143.03172388	    102.37281652	      1.04196172	    -23.45277728	    -18.45201476	      0.00000000	      0.00000000	      0.00000000	      0.00000000	      0.00000000	      0.00000000	      0.00000000	      0.00000000	      0.00000000	      0.00000000	      0.00000000	      0.00000000	      0.00000000	      0.00000000	      0.00000000	      0.00000000	      0.00000000	      0.00000000	      0.00000000	      0.00000000	      0.00000000	      0.00000000	      0.00000000	      0.00000000	      0.00000000	      0.00000000	      0.00000000	      0.00000000	      0.00000000	      0.00000000	      0.00000000	      0.00000000	      0.00000000	      0.00000000	      0.00000000	      0.00000000	    -18.28362063	     -9.15544220	     11.76418679	     -0.39541175	      0.48159487	     -0.24009294	     18.28362063	      9.15544220	    -11.76418679	      4.97329695	     -0.30947390	      7.48888636	   -363.24494711	   -185.79316694	    -98.90372130	      7.51409157	    -12.23339539	     -4.60643980	    363.24494711	    185.79316694	     98.90372130	    -44.93742869	      8.69343818	    148.70150301	      0.00000000	      0.00000000	    726.63516674	    471.83114829	     13.96116234	     10.51592606	      5.13447003	      0.00000000	      0.00000000	      0.00000000	      0.00000000	      0.00000000	      0.00000001	      0.00000000	     55.00000000	    -95.26270000	      0.00000000
      0.00181261	     37.44755849	     28.23275847	     30.20713881	     13.22769035	     14.43982776	     15.90231147	      0.00000000	     17.68360122	     18.66632754	     29.69069901	      7.73375551	     27.89489020	     20.55267776	     14.48462573	     12.14561947	     19.65327520	     11.72364584	     11.12602700	      7.42744089	     18.09765677	     27.51568552	     20.53715303	     63.87360765	     55.70361446	     18.04966765	      9.16034013	     20.03290870	     84.15870281	     64.04886433	     67.65534345	     90.68179781	     20.38981620	     13.15531910	    147.33176652	     92.82114601	     15.18550253	     15.44841771	     43.94268903	     20.78624751	     45.46525414	      9.01675643	     25.13553931	      8.05777760	     37.44755849	     28.23275847	     30.20713881	     13.22769035	     14.43982776	     15.90231147	     42.05183821	     20.37629925	     37.65958752	     35.92494826	      7.55114151	     27.89489020	     20.55267776	     14.48462573	     12.14561947	     19.65327520	     12.57788599	     11.12602700	      7.75697636	     18.09765677	     27.51568552	     20.53715303	     63.87360765	     55.70361446	     18.04966765	      9.16034013	     20.03290870	     52.57105207	     32.45147022	     37.18862857	     39.83828891	     67.69944890	     31.64153103	    152.68124480	     92.43497788	     14.93559998	     15.27047319	     41.80471708	     21.61666503	     46.39736034	      8.85165272	     25.03204109	      7.95399328	    124.44850795	    124.44850795	     44.91499052	     44.91499052	     60.92311664	     60.92311664	      2.76307435	     50.99597937	     -9.56042239	      5.21997485	     -0.02578839	      1.48581788	     -2.76307435	    -50.99597937	      9.56042239	     -1.74637766	      0.02558040	     -0.48301696	     -3.31599387	     20.97615968	     -3.40468921	      0.94473225	     -0.02138609	     -1.00501789	      3.31599387	    -20.97615968	      3.40468921	      0.28075727	      0.00368718	     -0.29758878	    918.69062682	    116.70583888	   -101.92838630	     39.52107141	     21.74637784	    376.24562853	   -918.69062682	   -116.70583888	    101.92838630	      0.29731253	    -23.33937848	    -19.18254777	      0.00000000	      0.00000000	      0.00000000	      0.00000000	      0.00000000	      0.00000000	      0.00000000	      0.00000000	      0.00000000	      0.00000000	      0.00000000	      0.00000000	      0.00000000	      0.00000000	      0.00000000	      0.00000000	      0.00000000	      0.00000000	      0.00000000	      0.00000000	      0.00000000	      0.00000000	      0.00000000	      0.00000000	      0.00000000	      0.00000000	      0.00000000	      0.00000000	      0.00000000	      0.00000000	      0.00000000	      0.00000000	      0.00000000	      0.00000000	      0.00000000	      0.00000000	    -17.64027824	     -8.42389018	     11.32020668	     -0.37683228	      0.46242869	     -0.24342704	     17.64027824	      8.42389018	    -11.32020668	      4.78067532	     -0.29709586	      7.22896753	   -349.58782699	   -171.86961548	    -94.53540456	      7.03866310	    -11.75713141	     -4.64560191	    349.58782699	    171.86961548	     94.53540456	    -42.83295576	      8.36119122	    143.18531604	      0.00000000	      0.00000000	    725.29705981	    468.73829786	     11.82475334	      7.98262136	      2.38939997	      0.00000000	      0.00000000	      0.00000000	      0.00000000	      0.00000000	      0.00000001	      0.00000000	     55.00000000	    -95.26270000	      0.00000000
